<svg xmlns="http://www.w3.org/2000/svg" viewBox="-1.525 -0.317 300 77.741">
  <g fill="#50493E" transform="matrix(3.318036, 0, 0, 3.318036, 124.213036, 1.275741)">
    <path
      d="M3.11 10.25L3.11 12.36L3.11 12.36Q3.11 12.73 3.34 12.88L3.34 12.88L3.34 12.88Q3.57 13.03 3.99 13.03L3.99 13.03L3.99 13.03Q4.20 13.03 4.42 13.00L4.42 13.00L4.42 13.00Q4.65 12.96 4.82 12.91L4.82 12.91L4.82 12.91Q4.94 13.06 5.03 13.25L5.03 13.25L5.03 13.25Q5.12 13.44 5.12 13.71L5.12 13.71L5.12 13.71Q5.12 14.24 4.73 14.57L4.73 14.57L4.73 14.57Q4.33 14.91 3.32 14.91L3.32 14.91L3.32 14.91Q2.09 14.91 1.42 14.35L1.42 14.35L1.42 14.35Q0.76 13.79 0.76 12.53L0.76 12.53L0.76 6.54L0.76 6.54Q0.91 6.50 1.20 6.45L1.20 6.45L1.20 6.45Q1.48 6.40 1.81 6.40L1.81 6.40L1.81 6.40Q2.42 6.40 2.77 6.62L2.77 6.62L2.77 6.62Q3.11 6.83 3.11 7.53L3.11 7.53L3.11 8.43L4.94 8.43L4.94 8.43Q5.03 8.58 5.10 8.81L5.10 8.81L5.10 8.81Q5.18 9.04 5.18 9.32L5.18 9.32L5.18 9.32Q5.18 9.81 4.96 10.03L4.96 10.03L4.96 10.03Q4.75 10.25 4.38 10.25L4.38 10.25L3.11 10.25ZM9.93 14.92L9.93 14.92L9.93 14.92Q9.10 14.92 8.39 14.69L8.39 14.69L8.39 14.69Q7.69 14.46 7.16 14.00L7.16 14.00L7.16 14.00Q6.64 13.54 6.34 12.84L6.34 12.84L6.34 12.84Q6.03 12.14 6.03 11.20L6.03 11.20L6.03 11.20Q6.03 10.28 6.34 9.61L6.34 9.61L6.34 9.61Q6.64 8.95 7.13 8.52L7.13 8.52L7.13 8.52Q7.62 8.09 8.25 7.89L8.25 7.89L8.25 7.89Q8.88 7.69 9.53 7.69L9.53 7.69L9.53 7.69Q10.28 7.69 10.89 7.91L10.89 7.91L10.89 7.91Q11.49 8.13 11.94 8.53L11.94 8.53L11.94 8.53Q12.38 8.92 12.62 9.46L12.62 9.46L12.62 9.46Q12.87 10.01 12.87 10.65L12.87 10.65L12.87 10.65Q12.87 11.13 12.60 11.38L12.60 11.38L12.60 11.38Q12.33 11.63 11.86 11.70L11.86 11.70L8.40 12.22L8.40 12.22Q8.55 12.68 9.03 12.92L9.03 12.92L9.03 12.92Q9.51 13.15 10.12 13.15L10.12 13.15L10.12 13.15Q10.70 13.15 11.21 13.00L11.21 13.00L11.21 13.00Q11.72 12.85 12.04 12.66L12.04 12.66L12.04 12.66Q12.26 12.80 12.42 13.05L12.42 13.05L12.42 13.05Q12.57 13.30 12.57 13.58L12.57 13.58L12.57 13.58Q12.57 14.21 11.98 14.52L11.98 14.52L11.98 14.52Q11.54 14.76 10.98 14.84L10.98 14.84L10.98 14.84Q10.42 14.92 9.93 14.92ZM9.53 9.42L9.53 9.42L9.53 9.42Q9.20 9.42 8.95 9.53L8.95 9.53L8.95 9.53Q8.71 9.65 8.55 9.82L8.55 9.82L8.55 9.82Q8.40 10.00 8.32 10.21L8.32 10.21L8.32 10.21Q8.25 10.43 8.23 10.65L8.23 10.65L10.63 10.26L10.63 10.26Q10.58 9.98 10.32 9.70L10.32 9.70L10.32 9.70Q10.05 9.42 9.53 9.42ZM17.28 7.69L17.28 7.69L17.28 7.69Q17.85 7.69 18.40 7.85L18.40 7.85L18.40 7.85Q18.96 8.01 19.36 8.33L19.36 8.33L19.36 8.33Q19.78 8.05 20.31 7.87L20.31 7.87L20.31 7.87Q20.83 7.69 21.57 7.69L21.57 7.69L21.57 7.69Q22.11 7.69 22.62 7.83L22.62 7.83L22.62 7.83Q23.13 7.97 23.53 8.27L23.53 8.27L23.53 8.27Q23.93 8.57 24.16 9.07L24.16 9.07L24.16 9.07Q24.40 9.56 24.40 10.28L24.40 10.28L24.40 14.69L24.40 14.69Q24.26 14.73 23.96 14.77L23.96 14.77L23.96 14.77Q23.66 14.81 23.34 14.81L23.34 14.81L23.34 14.81Q23.03 14.81 22.79 14.77L22.79 14.77L22.79 14.77Q22.54 14.73 22.37 14.60L22.37 14.60L22.37 14.60Q22.20 14.48 22.11 14.26L22.11 14.26L22.11 14.26Q22.02 14.04 22.02 13.69L22.02 13.69L22.02 10.35L22.02 10.35Q22.02 9.93 21.78 9.74L21.78 9.74L21.78 9.74Q21.55 9.55 21.14 9.55L21.14 9.55L21.14 9.55Q20.94 9.55 20.72 9.64L20.72 9.64L20.72 9.64Q20.50 9.73 20.38 9.83L20.38 9.83L20.38 9.83Q20.40 9.88 20.40 9.93L20.40 9.93L20.40 9.93Q20.40 9.98 20.40 10.02L20.40 10.02L20.40 14.69L20.40 14.69Q20.24 14.73 19.94 14.77L19.94 14.77L19.94 14.77Q19.64 14.81 19.33 14.81L19.33 14.81L19.33 14.81Q19.03 14.81 18.78 14.77L18.78 14.77L18.78 14.77Q18.54 14.73 18.37 14.60L18.37 14.60L18.37 14.60Q18.20 14.48 18.11 14.26L18.11 14.26L18.11 14.26Q18.02 14.04 18.02 13.69L18.02 13.69L18.02 10.35L18.02 10.35Q18.02 9.93 17.76 9.74L17.76 9.74L17.76 9.74Q17.50 9.55 17.14 9.55L17.14 9.55L17.14 9.55Q16.88 9.55 16.70 9.63L16.70 9.63L16.70 9.63Q16.52 9.70 16.39 9.77L16.39 9.77L16.39 14.69L16.39 14.69Q16.25 14.73 15.95 14.77L15.95 14.77L15.95 14.77Q15.65 14.81 15.33 14.81L15.33 14.81L15.33 14.81Q15.02 14.81 14.78 14.77L14.78 14.77L14.78 14.77Q14.53 14.73 14.36 14.60L14.36 14.60L14.36 14.60Q14.20 14.48 14.11 14.26L14.11 14.26L14.11 14.26Q14.01 14.04 14.01 13.69L14.01 13.69L14.01 9.46L14.01 9.46Q14.01 9.09 14.18 8.86L14.18 8.86L14.18 8.86Q14.34 8.64 14.62 8.44L14.62 8.44L14.62 8.44Q15.09 8.11 15.80 7.90L15.80 7.90L15.80 7.90Q16.51 7.69 17.28 7.69ZM28.98 7.69L28.98 7.69L28.98 7.69Q29.82 7.69 30.54 7.90L30.54 7.90L30.54 7.90Q31.26 8.12 31.78 8.57L31.78 8.57L31.78 8.57Q32.30 9.02 32.59 9.70L32.59 9.70L32.59 9.70Q32.89 10.37 32.89 11.31L32.89 11.31L32.89 11.31Q32.89 12.21 32.63 12.88L32.63 12.88L32.63 12.88Q32.38 13.55 31.92 14.01L31.92 14.01L31.92 14.01Q31.46 14.46 30.81 14.69L30.81 14.69L30.81 14.69Q30.16 14.91 29.36 14.91L29.36 14.91L29.36 14.91Q28.76 14.91 28.24 14.73L28.24 14.73L28.24 17.05L28.24 17.05Q28.10 17.09 27.79 17.14L27.79 17.14L27.79 17.14Q27.48 17.19 27.16 17.19L27.16 17.19L27.16 17.19Q26.85 17.19 26.61 17.15L26.61 17.15L26.61 17.15Q26.36 17.11 26.19 16.98L26.19 16.98L26.19 16.98Q26.03 16.86 25.94 16.64L25.94 16.64L25.94 16.64Q25.86 16.42 25.86 16.07L25.86 16.07L25.86 9.35L25.86 9.35Q25.86 8.97 26.02 8.74L26.02 8.74L26.02 8.74Q26.18 8.50 26.46 8.30L26.46 8.30L26.46 8.30Q26.89 8.02 27.54 7.85L27.54 7.85L27.54 7.85Q28.18 7.69 28.98 7.69ZM29.01 13.03L29.01 13.03L29.01 13.03Q30.45 13.03 30.45 11.31L30.45 11.31L30.45 11.31Q30.45 10.42 30.09 9.98L30.09 9.98L30.09 9.98Q29.74 9.55 29.06 9.55L29.06 9.55L29.06 9.55Q28.80 9.55 28.59 9.61L28.59 9.61L28.59 9.61Q28.38 9.67 28.22 9.76L28.22 9.76L28.22 12.84L28.22 12.84Q28.39 12.92 28.59 12.98L28.59 12.98L28.59 12.98Q28.78 13.03 29.01 13.03ZM36.47 6.57L36.47 14.69L36.47 14.69Q36.32 14.71 36.02 14.76L36.02 14.76L36.02 14.76Q35.71 14.81 35.41 14.81L35.41 14.81L35.41 14.81Q35.10 14.81 34.85 14.77L34.85 14.77L34.85 14.77Q34.61 14.73 34.44 14.60L34.44 14.60L34.44 14.60Q34.27 14.48 34.18 14.26L34.18 14.26L34.18 14.26Q34.09 14.04 34.09 13.69L34.09 13.69L34.09 5.57L34.09 5.57Q34.24 5.54 34.55 5.50L34.55 5.50L34.55 5.50Q34.85 5.45 35.15 5.45L35.15 5.45L35.15 5.45Q35.46 5.45 35.71 5.49L35.71 5.49L35.71 5.49Q35.95 5.53 36.12 5.66L36.12 5.66L36.12 5.66Q36.29 5.78 36.38 6.00L36.38 6.00L36.38 6.00Q36.47 6.22 36.47 6.57L36.47 6.57ZM40.39 6.57L40.39 14.69L40.39 14.69Q40.24 14.71 39.94 14.76L39.94 14.76L39.94 14.76Q39.63 14.81 39.33 14.81L39.33 14.81L39.33 14.81Q39.02 14.81 38.77 14.77L38.77 14.77L38.77 14.77Q38.53 14.73 38.36 14.60L38.36 14.60L38.36 14.60Q38.19 14.48 38.10 14.26L38.10 14.26L38.10 14.26Q38.01 14.04 38.01 13.69L38.01 13.69L38.01 5.57L38.01 5.57Q38.16 5.54 38.47 5.50L38.47 5.50L38.47 5.50Q38.77 5.45 39.07 5.45L39.07 5.45L39.07 5.45Q39.38 5.45 39.63 5.49L39.63 5.49L39.63 5.49Q39.87 5.53 40.04 5.66L40.04 5.66L40.04 5.66Q40.21 5.78 40.30 6.00L40.30 6.00L40.30 6.00Q40.39 6.22 40.39 6.57L40.39 6.57Z"
    ></path>
  </g>
  <g
    stroke="none"
    fill="#D54F3E"
    transform="matrix(0.793108, 0, 0, 0.793108, 36.429752, -1.823945)"
  >
    <path
      d="M22.392 55.79h54.954v2.321H22.392zM2.268 85.784h95.203v2.319H2.268zM22.392 52.309h54.954v2.321H22.392zM71.504 45.184h-3.729v-4.78h3.729v-2.392h-43.27v2.392h3.379v4.78h-3.379v5.649h43.27v-5.649zm-6.326 0H34.521v-4.78h30.657v4.78zM51.907 19.203V14.43h-4.08v4.774L28.502 36.251h42.734L51.907 19.203zm-2.037 3.324l11.205 9.884h-22.41l11.205-9.884zM19.777 78.391c0-.941.767-1.709 1.711-1.709h5.078a1.71 1.71 0 0 1 1.709 1.709v6.041h2.577v-6.041c0-.941.766-1.709 1.708-1.709h36.727c.941 0 1.708.768 1.708 1.709v6.041h2.771v-6.041c0-.941.768-1.709 1.707-1.709h5.082c.941 0 1.709.768 1.709 1.709v6.041h9.207l-6.133-11.808H82.7l-1.128-2.17h2.639L83.19 68.49h-2.635l-1.129-2.17h2.639l-1.02-1.961h-2.638l-1.128-2.17h2.642l-1.417-2.725h-56.31l-1.412 2.725h2.458l-1.126 2.17h-2.46l-1.02 1.961h2.46l-1.128 2.17h-2.458l-1.02 1.964h2.46l-1.128 2.17h-2.458L9.231 84.432h10.546v-6.041zm48.041-13.702a2.46 2.46 0 0 1 2.459 2.461 2.46 2.46 0 1 1-4.92 0c0-1.357 1.1-2.461 2.461-2.461zm-8.754 0a2.463 2.463 0 1 1-2.467 2.461 2.466 2.466 0 0 1 2.467-2.461zm-8.758 0a2.463 2.463 0 0 1 0 4.926 2.463 2.463 0 0 1 0-4.926zm-8.755 0a2.461 2.461 0 0 1 2.461 2.461 2.46 2.46 0 1 1-4.922 0 2.463 2.463 0 0 1 2.461-2.461zm-8.756 0a2.464 2.464 0 1 1-.001 4.927 2.464 2.464 0 0 1 .001-4.927z"
    ></path>
    <path
      d="M49.958 25.188c-1.918 0-3.479 1.561-3.479 3.479s1.561 3.479 3.479 3.479c1.919 0 3.479-1.561 3.479-3.479s-1.56-3.479-3.479-3.479zm-1.312 4.147a1.453 1.453 0 0 1-.167-.669c0-.815.664-1.479 1.479-1.479.323 0 .62.107.862.283-.368.891-1.086 1.619-2.174 1.865z"
    ></path>
  </g>
</svg>
